<svg preserveAspectRatio="none" overflow="visible" style="display: block;" width="1379.53" height="280.815" viewBox="0 0 1379.53 280.815" fill="none" xmlns="http://www.w3.org/2000/svg">
<g id="Group" filter="url(#filter0_g_0_336)">
<path id="Vector" d="M9.93225 111.194H663.191L1011.89 9.97791C1011.89 9.97791 1166.23 6.95111 1179.61 50.1877C1188.11 77.6263 1206.1 86.2361 1206.1 86.2361L1295.78 106.52C1309.43 109.607 1321.99 114.335 1332.75 120.44C1374.98 144.383 1381.8 184.446 1348.59 213.457L1343 218.335C1325.87 233.297 1300.77 243.929 1272.09 247.811C1234.26 252.931 1179.82 259.719 1139.89 262.281C1066.36 266.999 1063.45 266.64 989.819 270.644C923.56 274.247 828.709 235.981 828.709 235.981L663.191 241.528L9.93225 213.798V111.194Z" fill="white"/>
</g>
<defs>
<filter id="filter0_g_0_336" x="0" y="6.56284e-08" width="1379.53" height="280.815" filterUnits="userSpaceOnUse" color-interpolation-filters="sRGB">
<feFlood flood-opacity="0" result="BackgroundImageFix"/>
<feBlend mode="normal" in="SourceGraphic" in2="BackgroundImageFix" result="shape"/>
<feTurbulence type="fractalNoise" baseFrequency="0.017767421901226044 0.017767421901226044" numOctaves="3" seed="7105" />
<feDisplacementMap in="shape" scale="19.864509582519531" xChannelSelector="R" yChannelSelector="G" result="displacedImage" width="100%" height="100%" />
<feMerge result="effect1_texture_0_336">
<feMergeNode in="displacedImage"/>
</feMerge>
</filter>
</defs>
</svg>
