<svg preserveAspectRatio="none" overflow="visible" style="display: block;" width="1384.49" height="253.084" viewBox="0 0 1384.49 253.084" fill="none" xmlns="http://www.w3.org/2000/svg">
<g id="Group" filter="url(#filter0_g_0_383)">
<path id="Vector" d="M1374.56 111.194H721.298L372.6 9.97789C372.6 9.97789 218.259 6.9515 204.872 50.1873C196.376 77.6263 178.389 86.2341 178.389 86.2341L85.3343 107.282C73.915 109.866 63.4067 113.822 54.3967 118.931L31.6201 131.843C2.70296 148.24 2.70296 176.751 31.6201 193.149C53.2233 205.396 85.0534 207.2 111.432 199.482C145.977 189.373 194.795 178.031 233.563 180.52C307.09 185.235 321.035 238.908 394.67 242.912C460.926 246.515 555.777 208.249 555.777 208.249L721.298 213.798H1374.56V111.194Z" fill="#A7ACB6"/>
</g>
<defs>
<filter id="filter0_g_0_383" x="3.57628e-07" y="6.9961e-08" width="1384.49" height="253.084" filterUnits="userSpaceOnUse" color-interpolation-filters="sRGB">
<feFlood flood-opacity="0" result="BackgroundImageFix"/>
<feBlend mode="normal" in="SourceGraphic" in2="BackgroundImageFix" result="shape"/>
<feTurbulence type="fractalNoise" baseFrequency="0.017767421901226044 0.017767421901226044" numOctaves="3" seed="7105" />
<feDisplacementMap in="shape" scale="19.864509582519531" xChannelSelector="R" yChannelSelector="G" result="displacedImage" width="100%" height="100%" />
<feMerge result="effect1_texture_0_383">
<feMergeNode in="displacedImage"/>
</feMerge>
</filter>
</defs>
</svg>
