<svg preserveAspectRatio="none" overflow="visible" style="display: block;" width="1229.51" height="246.45" viewBox="0 0 1229.51 246.45" fill="none" xmlns="http://www.w3.org/2000/svg">
<g id="Group" filter="url(#filter0_g_0_330)">
<path id="Vector" d="M181.948 9.93225C86.9464 9.93225 9.93225 58.3176 9.93225 118.002C9.93232 177.687 86.9464 226.072 181.948 226.072C236.764 226.072 285.591 209.963 317.089 184.869C336.392 198.394 364.413 206.908 395.605 206.908C411.671 206.908 426.895 204.645 440.524 200.607C458.036 221.932 493.44 236.516 534.27 236.518C557.639 236.518 579.227 231.736 596.705 223.653C614.183 231.736 635.771 236.518 659.139 236.518C707.431 236.516 748.138 216.116 760.62 188.285C779.593 199.812 805.425 206.908 833.9 206.908C865.091 206.908 893.113 198.396 912.415 184.869C943.915 209.963 992.74 226.072 1047.55 226.072C1142.56 226.072 1219.58 177.687 1219.58 118.002C1219.58 58.3176 1142.56 9.93225 1047.55 9.93225C972.232 9.93265 908.223 40.3502 884.934 82.7015C869.814 77.4355 852.415 74.4326 833.9 74.4326C785.608 74.4326 744.904 94.8326 732.418 122.664C713.446 111.139 687.611 104.045 659.139 104.045C635.771 104.045 614.183 108.822 596.705 116.906C579.227 108.822 557.639 104.045 534.27 104.045C518.205 104.045 502.983 106.304 489.358 110.341C471.842 89.0163 436.433 74.4326 395.605 74.4326C377.093 74.4326 359.697 77.4355 344.574 82.6995C321.288 40.3502 257.272 9.93245 181.948 9.93225Z" fill="white"/>
</g>
<defs>
<filter id="filter0_g_0_330" x="0" y="0" width="1229.51" height="246.45" filterUnits="userSpaceOnUse" color-interpolation-filters="sRGB">
<feFlood flood-opacity="0" result="BackgroundImageFix"/>
<feBlend mode="normal" in="SourceGraphic" in2="BackgroundImageFix" result="shape"/>
<feTurbulence type="fractalNoise" baseFrequency="0.017767421901226044 0.017767421901226044" numOctaves="3" seed="6866" />
<feDisplacementMap in="shape" scale="19.864509582519531" xChannelSelector="R" yChannelSelector="G" result="displacedImage" width="100%" height="100%" />
<feMerge result="effect1_texture_0_330">
<feMergeNode in="displacedImage"/>
</feMerge>
</filter>
</defs>
</svg>
